# xmcd
#
# Track frame offsets:
#	150
#	15414
#	33540
#	51505
#	70939
#	87965
#	106647
#	123874
#	142476
#	160317
#	181046
#	198383
#	215991
#	242992
#
# Disc length: 3530 seconds
# Revision: 2
# Processed by: cddbd v1.5.2PL0 Copyright (c) Steve Scherf et al.
# Submitted via: dBpowerAMP V12.0
#
DISCID=cc0dc80e
DTITLE=Carrie Underwood - All Star Karaoke: Carrie Underwood Hits
DYEAR=2015
DGENRE=Karaoke
TTITLE0=Before He Cheats
TTITLE1=Don't Forget To Remember Me
TTITLE2=I Just Can't Live A Lie
TTITLE3=Inside Your Heaven
TTITLE4=Jesus, Take The Wheel
TTITLE5=Lessons Learned
TTITLE6=Some Hearts
TTITLE7=Starts With Goodbye
TTITLE8=The Night Before (Life Goes On)
TTITLE9=Wasted
TTITLE10=We're Young And Beautiful
TTITLE11=Whenever You Remember
TTITLE12=I'll Stand By You
TTITLE13=DATA
EXTD=
EXTT0=
EXTT1=
EXTT2=
EXTT3=
EXTT4=
EXTT5=
EXTT6=
EXTT7=
EXTT8=
EXTT9=
EXTT10=
EXTT11=
EXTT12=
EXTT13=
PLAYORDER=
